<svg width="573" height="325" viewBox="0 0 573 325" fill="none" xmlns="http://www.w3.org/2000/svg">
<g clip-path="url(#clip0_10_16)">
<path d="M496.972 159.422H126.74C121.369 159.416 116.219 157.274 112.42 153.466C108.622 149.658 106.485 144.495 106.479 139.11V20.3125C106.485 14.9272 108.622 9.76413 112.42 5.95611C116.219 2.1481 121.369 0.00608328 126.74 0H496.972C502.344 0.00608328 507.494 2.1481 511.292 5.95611C515.091 9.76413 517.227 14.9272 517.233 20.3125V139.11C517.227 144.495 515.091 149.658 511.292 153.466C507.494 157.274 502.344 159.416 496.972 159.422Z" fill="#E6E6E6"/>
<path d="M127.354 8.00189C124.099 8.00561 120.978 9.30381 118.675 11.6117C116.373 13.9196 115.078 17.0487 115.075 20.3125V139.11C115.078 142.374 116.373 145.503 118.675 147.811C120.978 150.119 124.099 151.417 127.354 151.42H497.586C500.841 151.417 503.963 150.119 506.265 147.811C508.567 145.503 509.862 142.374 509.865 139.11V20.3125C509.862 17.0487 508.567 13.9196 506.265 11.6117C503.963 9.3038 500.841 8.0056 497.586 8.00189H127.354Z" fill="white"/>
<path d="M173.798 57.6992C171.138 57.6992 168.537 56.9084 166.325 55.4267C164.113 53.945 162.39 51.8391 161.372 49.3752C160.353 46.9112 160.087 44.2 160.606 41.5843C161.125 38.9686 162.406 36.566 164.287 34.6802C166.168 32.7944 168.565 31.5101 171.174 30.9898C173.783 30.4695 176.487 30.7366 178.945 31.7571C181.403 32.7777 183.504 34.506 184.982 36.7235C186.459 38.941 187.248 41.548 187.248 44.215C187.244 47.79 185.826 51.2174 183.304 53.7454C180.783 56.2733 177.364 57.6952 173.798 57.6992ZM173.798 32.5286C171.492 32.5286 169.239 33.214 167.322 34.4981C165.405 35.7822 163.911 37.6074 163.028 39.7428C162.146 41.8782 161.915 44.2279 162.365 46.4948C162.815 48.7618 163.925 50.8441 165.555 52.4785C167.186 54.1128 169.263 55.2258 171.524 55.6768C173.785 56.1277 176.129 55.8963 178.259 55.0118C180.389 54.1272 182.21 52.6294 183.49 50.7076C184.771 48.7858 185.455 46.5263 185.455 44.215C185.451 41.1166 184.222 38.1462 182.037 35.9554C179.852 33.7645 176.889 32.5321 173.798 32.5286Z" fill="#CCCCCC"/>
<path d="M173.5 41.1546H173.475L172.056 41.9228L171.843 41.0791L173.626 40.1223H174.568V48.3076H173.5V41.1546Z" fill="#CCCCCC"/>
<path d="M155.436 79.468C155.753 79.479 156.066 79.3942 156.334 79.2246C156.602 79.055 156.812 78.8085 156.939 78.5171C157.065 78.2257 157.101 77.903 157.042 77.5908C156.983 77.2787 156.831 76.9916 156.607 76.767C156.383 76.5423 156.097 76.3905 155.785 76.3312C155.474 76.2719 155.152 76.3079 154.862 76.4346C154.571 76.5612 154.325 76.7726 154.156 77.0413C153.987 77.31 153.902 77.6234 153.913 77.941C153.927 78.3415 154.092 78.7219 154.375 79.0054C154.657 79.2888 155.037 79.4541 155.436 79.468Z" fill="#E6E6E6"/>
<path d="M155.436 89.3565C155.753 89.3675 156.066 89.2827 156.334 89.1131C156.602 88.9435 156.812 88.697 156.939 88.4056C157.065 88.1142 157.101 87.7915 157.042 87.4793C156.983 87.1672 156.831 86.8801 156.607 86.6555C156.383 86.4308 156.097 86.279 155.785 86.2197C155.474 86.1604 155.152 86.1964 154.862 86.3231C154.571 86.4497 154.325 86.6611 154.156 86.9298C153.987 87.1984 153.902 87.5119 153.913 87.8294C153.927 88.23 154.092 88.6104 154.375 88.8938C154.657 89.1772 155.037 89.3426 155.436 89.3565Z" fill="#E6E6E6"/>
<path d="M155.436 99.2449C155.753 99.2559 156.066 99.1711 156.334 99.0015C156.602 98.8319 156.812 98.5854 156.939 98.294C157.065 98.0026 157.101 97.6799 157.042 97.3678C156.983 97.0556 156.831 96.7686 156.607 96.5439C156.383 96.3192 156.097 96.1674 155.785 96.1081C155.474 96.0488 155.152 96.0849 154.862 96.2115C154.571 96.3382 154.325 96.5496 154.156 96.8182C153.987 97.0869 153.902 97.4004 153.913 97.7179C153.927 98.1185 154.092 98.4988 154.375 98.7823C154.657 99.0657 155.037 99.231 155.436 99.2449Z" fill="#E6E6E6"/>
<path d="M192.787 78.7851H164.092C163.855 78.7851 163.627 78.6904 163.458 78.5218C163.29 78.3533 163.196 78.1246 163.196 77.8862C163.196 77.6478 163.29 77.4191 163.458 77.2505C163.627 77.082 163.855 76.9872 164.092 76.9872H192.787C193.024 76.9872 193.252 77.082 193.421 77.2505C193.589 77.4191 193.683 77.6478 193.683 77.8862C193.683 78.1246 193.589 78.3533 193.421 78.5218C193.252 78.6904 193.024 78.7851 192.787 78.7851H192.787Z" fill="#E6E6E6"/>
<path d="M192.787 88.6736H164.092C163.855 88.6738 163.626 88.5794 163.458 88.4109C163.29 88.2425 163.195 88.014 163.195 87.7756C163.195 87.5371 163.289 87.3084 163.457 87.1396C163.625 86.9709 163.853 86.8759 164.091 86.8757H192.787C193.024 86.8754 193.253 86.9699 193.421 87.1383C193.589 87.3067 193.684 87.5352 193.684 87.7737C193.684 88.0121 193.59 88.2408 193.422 88.4096C193.254 88.5784 193.026 88.6733 192.788 88.6736H192.787Z" fill="#E6E6E6"/>
<path d="M192.787 98.562H164.092C163.855 98.562 163.627 98.4673 163.458 98.2987C163.29 98.1301 163.196 97.9015 163.196 97.6631C163.196 97.4246 163.29 97.196 163.458 97.0274C163.627 96.8588 163.855 96.7641 164.092 96.7641H192.787C192.904 96.764 193.021 96.7871 193.13 96.8322C193.239 96.8772 193.338 96.9433 193.421 97.0267C193.504 97.1101 193.57 97.2091 193.616 97.3182C193.661 97.4272 193.684 97.544 193.684 97.6621C193.684 97.7802 193.661 97.8971 193.616 98.0062C193.571 98.1153 193.505 98.2145 193.422 98.298C193.339 98.3816 193.24 98.4479 193.132 98.4932C193.023 98.5385 192.906 98.5619 192.788 98.562H192.787Z" fill="#E6E6E6"/>
<path d="M257.11 55.8526C254.45 55.8526 251.85 55.0617 249.638 53.5801C247.426 52.0984 245.702 49.9925 244.684 47.5285C243.666 45.0646 243.4 42.3534 243.919 39.7377C244.438 37.122 245.719 34.7193 247.6 32.8335C249.481 30.9477 251.877 29.6635 254.486 29.1432C257.096 28.6229 259.8 28.8899 262.258 29.9105C264.715 30.9311 266.816 32.6594 268.294 34.8769C269.772 37.0944 270.561 39.7014 270.561 42.3683C270.561 44.1391 270.213 45.8926 269.537 47.5285C268.861 49.1645 267.87 50.651 266.621 51.9032C265.372 53.1553 263.89 54.1485 262.258 54.8262C260.626 55.5038 258.877 55.8526 257.11 55.8526ZM257.11 30.682C254.805 30.682 252.551 31.3674 250.634 32.6515C248.717 33.9356 247.223 35.7608 246.341 37.8962C245.459 40.0316 245.228 42.3813 245.677 44.6482C246.127 46.9152 247.237 48.9975 248.868 50.6318C250.498 52.2662 252.575 53.3792 254.836 53.8302C257.097 54.2811 259.441 54.0497 261.571 53.1652C263.701 52.2806 265.522 50.7828 266.803 48.861C268.084 46.9392 268.767 44.6797 268.767 42.3684V42.3683C268.764 39.27 267.535 36.2996 265.349 34.1088C263.164 31.918 260.201 30.6856 257.11 30.682V30.682Z" fill="#CCCCCC"/>
<path d="M254.731 46.5304V45.85L255.597 45.0064C257.683 43.0171 258.626 41.9584 258.638 40.725C258.66 40.5073 258.633 40.2874 258.559 40.0815C258.486 39.8756 258.366 39.689 258.211 39.5355C258.055 39.382 257.867 39.2656 257.661 39.1947C257.454 39.1239 257.235 39.1005 257.018 39.1263C256.378 39.1499 255.765 39.3943 255.284 39.8181L254.932 39.0377C255.581 38.4963 256.4 38.2019 257.244 38.2063C257.569 38.1774 257.896 38.2181 258.204 38.3257C258.511 38.4333 258.793 38.6054 259.029 38.8306C259.266 39.0557 259.452 39.3287 259.575 39.6314C259.698 39.9341 259.755 40.2596 259.743 40.5862C259.743 42.0971 258.65 43.3191 256.929 44.9809L256.276 45.5858V45.6104H259.944V46.5304H254.731Z" fill="#CCCCCC"/>
<path d="M292.722 128.009H221.499C220.034 128.007 218.63 127.423 217.594 126.384C216.558 125.346 215.975 123.938 215.974 122.469V79.9975C215.975 78.5288 216.558 77.1207 217.594 76.0822C218.63 75.0436 220.034 74.4594 221.499 74.4578H292.722C294.187 74.4594 295.591 75.0436 296.627 76.0822C297.663 77.1207 298.246 78.5288 298.247 79.9975V122.469C298.246 123.938 297.663 125.346 296.627 126.384C295.591 127.423 294.187 128.007 292.722 128.009Z" fill="white"/>
<path d="M281.321 85.9512H232.9C232.662 85.9515 232.434 85.857 232.266 85.6886C232.097 85.5202 232.003 85.2916 232.002 85.0532C232.002 84.8148 232.096 84.5861 232.264 84.4173C232.432 84.2485 232.66 84.1536 232.898 84.1533H281.321C281.559 84.1531 281.787 84.2475 281.956 84.4159C282.124 84.5843 282.219 84.8129 282.219 85.0513C282.219 85.2897 282.125 85.5185 281.957 85.6872C281.789 85.856 281.561 85.951 281.323 85.9512H281.321Z" fill="#E6E6E6"/>
<path d="M281.321 94.0417H232.9C232.662 94.042 232.434 93.9475 232.266 93.7791C232.097 93.6107 232.003 93.3822 232.002 93.1437C232.002 92.9053 232.096 92.6766 232.264 92.5078C232.432 92.339 232.66 92.2441 232.898 92.2438H281.321C281.559 92.2438 281.787 92.3385 281.955 92.5071C282.124 92.6757 282.218 92.9044 282.218 93.1428C282.218 93.3812 282.124 93.6098 281.955 93.7784C281.787 93.947 281.559 94.0417 281.321 94.0417H281.321Z" fill="#E6E6E6"/>
<path d="M281.321 102.132H232.9C232.662 102.133 232.434 102.038 232.266 101.87C232.097 101.701 232.003 101.473 232.002 101.234C232.002 100.996 232.096 100.767 232.264 100.598C232.432 100.43 232.66 100.335 232.898 100.334H281.321C281.559 100.334 281.787 100.429 281.956 100.597C282.124 100.765 282.219 100.994 282.219 101.232C282.219 101.471 282.125 101.7 281.957 101.868C281.789 102.037 281.561 102.132 281.323 102.132H281.321Z" fill="#E6E6E6"/>
<path d="M281.321 110.223H232.9C232.662 110.223 232.435 110.128 232.267 109.959C232.099 109.791 232.005 109.563 232.004 109.325C232.004 109.087 232.098 108.858 232.266 108.69C232.433 108.521 232.661 108.426 232.898 108.425H281.321C281.559 108.426 281.786 108.521 281.954 108.689C282.121 108.858 282.215 109.086 282.215 109.324C282.215 109.562 282.121 109.79 281.954 109.959C281.786 110.127 281.559 110.222 281.321 110.223H281.321Z" fill="#E6E6E6"/>
<path d="M281.321 118.313H232.9C232.662 118.313 232.434 118.219 232.266 118.05C232.098 117.882 232.003 117.653 232.003 117.414C232.003 117.176 232.098 116.947 232.266 116.779C232.434 116.61 232.662 116.516 232.9 116.516H281.321C281.559 116.515 281.787 116.61 281.956 116.778C282.124 116.947 282.219 117.175 282.219 117.413C282.219 117.652 282.125 117.881 281.957 118.049C281.789 118.218 281.561 118.313 281.323 118.313H281.321Z" fill="#E6E6E6"/>
<path d="M292.722 128.009H221.499C220.034 128.007 218.63 127.423 217.594 126.384C216.558 125.346 215.975 123.938 215.974 122.469V79.9975C215.975 78.5288 216.558 77.1207 217.594 76.0822C218.63 75.0436 220.034 74.4594 221.499 74.4578H292.722C294.187 74.4594 295.591 75.0436 296.627 76.0822C297.663 77.1207 298.246 78.5288 298.247 79.9975V122.469C298.246 123.938 297.663 125.346 296.627 126.384C295.591 127.423 294.187 128.007 292.722 128.009ZM221.499 75.6888C220.36 75.6901 219.268 76.1445 218.462 76.9522C217.656 77.76 217.203 78.8552 217.202 79.9975V122.469C217.203 123.611 217.656 124.707 218.462 125.514C219.268 126.322 220.36 126.777 221.499 126.778H292.722C293.861 126.777 294.953 126.322 295.759 125.514C296.565 124.707 297.018 123.611 297.019 122.469V79.9975C297.018 78.8552 296.565 77.76 295.759 76.9522C294.953 76.1445 293.861 75.6901 292.722 75.6888H221.499Z" fill="#E6E6E6"/>
<path d="M347.226 55.8526C344.566 55.8526 341.965 55.0617 339.753 53.5801C337.541 52.0984 335.817 49.9925 334.799 47.5285C333.781 45.0646 333.515 42.3534 334.034 39.7377C334.553 37.122 335.834 34.7193 337.715 32.8335C339.596 30.9477 341.993 29.6635 344.602 29.1432C347.211 28.6229 349.915 28.8899 352.373 29.9105C354.831 30.9311 356.931 32.6594 358.409 34.8769C359.887 37.0944 360.676 39.7014 360.676 42.3683C360.676 45.9446 359.259 49.3744 356.737 51.9032C354.214 54.4319 350.793 55.8526 347.226 55.8526ZM347.226 30.682C344.92 30.682 342.666 31.3674 340.749 32.6515C338.832 33.9356 337.338 35.7608 336.456 37.8962C335.574 40.0316 335.343 42.3813 335.793 44.6482C336.242 46.9152 337.353 48.9975 338.983 50.6318C340.613 52.2662 342.69 53.3792 344.952 53.8302C347.213 54.2811 349.557 54.0497 351.687 53.1652C353.817 52.2806 355.637 50.7828 356.918 48.861C358.199 46.9392 358.883 44.6797 358.883 42.3684V42.3683C358.879 39.27 357.65 36.2997 355.464 34.1088C353.279 31.918 350.316 30.6856 347.226 30.682V30.682Z" fill="#CCCCCC"/>
<path d="M344.977 45.1888C345.526 45.514 346.149 45.6918 346.786 45.705C348.206 45.705 348.646 44.7982 348.632 44.1187C348.62 42.9722 347.59 42.4814 346.523 42.4814H345.907V41.6501H346.523C347.327 41.6501 348.344 41.2348 348.344 40.2648C348.344 39.6099 347.929 39.0305 346.912 39.0305C346.326 39.047 345.759 39.2357 345.28 39.573L344.991 38.7671C345.625 38.3523 346.368 38.1331 347.125 38.1368C348.733 38.1368 349.462 39.0937 349.462 40.0892C349.453 40.5309 349.302 40.9578 349.03 41.3054C348.757 41.6529 348.38 41.9021 347.954 42.0153V42.0408C348.459 42.114 348.92 42.3666 349.254 42.7526C349.589 43.1385 349.774 43.6321 349.775 44.1433C349.775 45.4531 348.758 46.5996 346.799 46.5996C346.054 46.6092 345.321 46.4176 344.676 46.0448L344.977 45.1888Z" fill="#CCCCCC"/>
<path d="M327.351 116.146C327.668 116.157 327.981 116.072 328.249 115.903C328.517 115.733 328.728 115.486 328.854 115.195C328.98 114.904 329.016 114.581 328.957 114.269C328.898 113.957 328.746 113.67 328.522 113.445C328.298 113.22 328.012 113.068 327.701 113.009C327.389 112.95 327.067 112.986 326.777 113.113C326.486 113.239 326.24 113.451 326.071 113.719C325.902 113.988 325.817 114.301 325.828 114.619C325.842 115.019 326.007 115.4 326.29 115.683C326.572 115.967 326.952 116.132 327.351 116.146Z" fill="#E6E6E6"/>
<path d="M364.702 115.463H336.008C335.77 115.463 335.542 115.368 335.373 115.2C335.205 115.031 335.111 114.803 335.111 114.564C335.111 114.326 335.205 114.097 335.373 113.928C335.542 113.76 335.77 113.665 336.008 113.665H364.702C364.819 113.665 364.936 113.688 365.045 113.733C365.154 113.778 365.253 113.844 365.336 113.928C365.419 114.011 365.485 114.11 365.531 114.219C365.576 114.328 365.599 114.445 365.599 114.563C365.599 114.681 365.576 114.798 365.531 114.907C365.486 115.016 365.42 115.116 365.337 115.199C365.254 115.283 365.155 115.349 365.047 115.394C364.938 115.44 364.821 115.463 364.703 115.463H364.702Z" fill="#E6E6E6"/>
<path d="M372.399 103.388H322.052C320.913 103.386 319.82 102.932 319.015 102.124C318.209 101.317 317.756 100.221 317.754 99.079V78.7665C317.756 77.6241 318.209 76.5289 319.015 75.7212C319.82 74.9134 320.913 74.459 322.052 74.4578H372.399C373.538 74.459 374.631 74.9134 375.436 75.7212C376.242 76.5289 376.695 77.6241 376.697 78.7665V99.079C376.695 100.221 376.242 101.317 375.436 102.124C374.631 102.932 373.538 103.386 372.399 103.388ZM322.052 75.6888C321.238 75.6898 320.458 76.0143 319.883 76.5913C319.307 77.1683 318.983 77.9505 318.982 78.7665V99.079C318.983 99.8949 319.307 100.677 319.883 101.254C320.458 101.831 321.238 102.156 322.052 102.157H372.399C373.213 102.156 373.993 101.831 374.569 101.254C375.144 100.677 375.468 99.8949 375.469 99.079V78.7665C375.468 77.9505 375.144 77.1683 374.569 76.5913C373.993 76.0143 373.213 75.6898 372.399 75.6888H322.052Z" fill="#E6E6E6"/>
<path d="M374.933 75.7911L319.094 101.023L319.598 102.145L375.437 76.9134L374.933 75.7911Z" fill="#E6E6E6"/>
<path d="M319.832 75.4784L319.32 76.5971L374.85 102.142L375.362 101.023L319.832 75.4784Z" fill="#E6E6E6"/>
<path d="M413.764 89.7533C413.73 89.6817 413.686 89.6153 413.634 89.5558V89.5557L406.908 82.8137C406.825 82.73 406.726 82.6637 406.617 82.6183C406.509 82.573 406.392 82.5496 406.274 82.5496C406.156 82.5495 406.04 82.5727 405.931 82.6179C405.822 82.663 405.723 82.7293 405.64 82.8128C405.556 82.8963 405.49 82.9955 405.445 83.1047C405.4 83.2139 405.377 83.3309 405.377 83.449C405.377 83.5671 405.4 83.6841 405.446 83.7932C405.491 83.9023 405.557 84.0014 405.64 84.0849L410.835 89.2924H387.892C387.654 89.2924 387.426 89.3871 387.258 89.5557C387.09 89.7243 386.996 89.953 386.996 90.1914C386.996 90.4298 387.09 90.6585 387.258 90.827C387.426 90.9956 387.654 91.0903 387.892 91.0903H410.835L406.089 95.8484C406.005 95.9318 405.939 96.0309 405.894 96.1401C405.848 96.2492 405.825 96.3662 405.825 96.4845C405.825 96.6027 405.848 96.7197 405.893 96.829C405.938 96.9382 406.004 97.0375 406.087 97.121C406.171 97.2046 406.27 97.2709 406.379 97.3161C406.488 97.3613 406.604 97.3845 406.722 97.3843C406.84 97.3842 406.957 97.3608 407.066 97.3153C407.175 97.2699 407.274 97.2034 407.357 97.1196L413.633 90.8277L413.634 90.827C413.771 90.6875 413.858 90.5066 413.881 90.3124C413.905 90.1182 413.864 89.9216 413.764 89.7533Z" fill="#CCCCCC"/>
<path d="M471.028 72.0843H470.608V60.5432C470.608 59.666 470.436 58.7974 470.101 57.987C469.766 57.1766 469.275 56.4402 468.657 55.82C468.038 55.1997 467.303 54.7077 466.495 54.372C465.687 54.0363 464.82 53.8635 463.945 53.8635H439.555C438.68 53.8635 437.814 54.0363 437.006 54.372C436.197 54.7077 435.463 55.1997 434.844 55.8199C434.225 56.4402 433.735 57.1766 433.4 57.987C433.065 58.7974 432.893 59.666 432.893 60.5432V123.859C432.893 125.63 433.595 127.329 434.844 128.582C436.094 129.834 437.788 130.538 439.555 130.538H463.945C464.82 130.538 465.687 130.365 466.495 130.03C467.303 129.694 468.038 129.202 468.657 128.582C469.275 127.962 469.766 127.225 470.101 126.415C470.436 125.604 470.608 124.736 470.608 123.859V80.2995H471.028V72.0843Z" fill="#3F3D56"/>
<path d="M469.19 60.5899V123.812C469.19 125.135 468.666 126.404 467.733 127.339C466.8 128.275 465.534 128.801 464.214 128.801H439.707C438.388 128.801 437.122 128.275 436.189 127.339C435.256 126.404 434.731 125.135 434.731 123.812V60.5899C434.731 59.2668 435.256 57.998 436.189 57.0625C437.122 56.1269 438.388 55.6013 439.707 55.6013H442.68C442.534 55.9612 442.479 56.3516 442.518 56.7381C442.558 57.1246 442.692 57.4954 442.908 57.8179C443.124 58.1403 443.416 58.4046 443.758 58.5874C444.1 58.7702 444.482 58.866 444.869 58.8663H458.842C459.23 58.866 459.611 58.7702 459.953 58.5874C460.295 58.4046 460.587 58.1403 460.803 57.8178C461.02 57.4954 461.153 57.1246 461.193 56.7381C461.233 56.3516 461.177 55.9612 461.031 55.6013H464.214C465.534 55.6013 466.8 56.1269 467.733 57.0625C468.666 57.998 469.19 59.2668 469.19 60.5899Z" fill="white"/>
<path d="M147.988 133.632C147.734 133.309 147.556 132.933 147.469 132.531C147.381 132.129 147.387 131.713 147.484 131.314C149.812 121.54 149.812 111.354 147.484 101.58C147.386 101.18 147.381 100.764 147.469 100.362C147.556 99.9607 147.734 99.5843 147.988 99.2618C148.237 98.9438 148.555 98.6869 148.918 98.5106C149.28 98.3344 149.679 98.2434 150.082 98.2447H174.965C175.601 98.2459 176.215 98.4733 176.7 98.8864C177.184 99.2995 177.506 99.8715 177.609 100.501C179.232 111.069 179.232 121.824 177.609 132.393C177.506 133.022 177.184 133.594 176.7 134.007C176.215 134.42 175.601 134.648 174.965 134.649H150.082C149.679 134.65 149.28 134.559 148.918 134.383C148.555 134.207 148.237 133.95 147.988 133.632Z" fill="#77B2D3"/>
<path d="M170.163 111.677H157.055C156.567 111.676 156.099 111.481 155.753 111.135C155.408 110.789 155.214 110.32 155.213 109.83V109.046C155.214 108.556 155.408 108.087 155.753 107.741C156.099 107.395 156.567 107.2 157.055 107.199H170.163C170.652 107.2 171.12 107.395 171.465 107.741C171.811 108.087 172.005 108.556 172.005 109.046V109.83C172.005 110.32 171.811 110.789 171.465 111.135C171.12 111.481 170.652 111.676 170.163 111.677Z" fill="white"/>
<path d="M170.163 119.4H157.055C156.567 119.399 156.099 119.205 155.753 118.858C155.408 118.512 155.214 118.043 155.213 117.553V116.769C155.214 116.28 155.408 115.81 155.753 115.464C156.099 115.118 156.567 114.923 157.055 114.923H170.163C170.652 114.923 171.12 115.118 171.465 115.464C171.811 115.81 172.005 116.28 172.005 116.769V117.553C172.005 118.043 171.811 118.512 171.465 118.858C171.12 119.205 170.652 119.399 170.163 119.4Z" fill="white"/>
<path d="M378.125 156.364C376.529 145.966 376.529 135.385 378.125 124.987C378.227 124.368 378.544 123.805 379.02 123.399C379.496 122.992 380.101 122.769 380.727 122.767H405.208C405.604 122.766 405.996 122.856 406.353 123.029C406.71 123.203 407.023 123.456 407.268 123.768C407.518 124.086 407.693 124.456 407.779 124.851C407.865 125.246 407.859 125.656 407.764 126.049C405.473 135.665 405.473 145.686 407.763 155.302C407.859 155.695 407.864 156.104 407.779 156.5C407.693 156.895 407.518 157.265 407.268 157.582C407.023 157.895 406.71 158.148 406.353 158.321C405.996 158.495 405.604 158.584 405.208 158.583H380.727C380.101 158.582 379.496 158.358 379.02 157.952C378.544 157.545 378.227 156.983 378.125 156.364Z" fill="#77B2D3"/>
<path d="M398.121 138.717H385.275C384.786 138.716 384.318 138.521 383.973 138.175C383.627 137.829 383.433 137.36 383.433 136.87V136.148C383.433 135.659 383.627 135.19 383.973 134.843C384.318 134.497 384.786 134.302 385.275 134.302H398.121C398.61 134.302 399.078 134.497 399.423 134.843C399.768 135.19 399.963 135.659 399.963 136.148V136.87C399.963 137.36 399.768 137.829 399.423 138.175C399.078 138.521 398.61 138.716 398.121 138.717Z" fill="white"/>
<path d="M22.641 224.691C27.7824 215.52 34.2936 207.192 41.9484 199.996C42.409 199.571 43.0048 199.325 43.6298 199.299C44.2549 199.274 44.8685 199.472 45.3616 199.858L64.6294 214.998C64.9424 215.242 65.1957 215.555 65.3699 215.912C65.5442 216.27 65.6348 216.662 65.6348 217.06C65.6365 217.464 65.5462 217.864 65.3706 218.228C65.1951 218.592 64.939 218.911 64.6219 219.161C56.9024 225.313 50.7359 233.2 46.6211 242.185C46.4549 242.553 46.2069 242.879 45.8962 243.137C45.5854 243.395 45.2201 243.578 44.828 243.673C44.4427 243.768 44.0409 243.773 43.6532 243.689C43.2655 243.605 42.9021 243.433 42.5906 243.187L23.3228 228.047C22.8313 227.659 22.493 227.109 22.3681 226.494C22.2432 225.88 22.34 225.241 22.641 224.691Z" fill="#CCCCCC"/>
<path d="M49.3535 222.294L39.2425 214.349C38.8584 214.046 38.6098 213.603 38.551 213.117C38.4922 212.631 38.6282 212.142 38.929 211.756L39.3729 211.188C39.6746 210.803 40.1163 210.554 40.6011 210.495C41.0859 210.436 41.5742 210.572 41.9589 210.874L52.0699 218.819C52.4539 219.122 52.7026 219.564 52.7613 220.05C52.8201 220.536 52.6841 221.026 52.3833 221.412L51.9394 221.979C51.6378 222.364 51.1961 222.614 50.7113 222.673C50.2265 222.731 49.7381 222.595 49.3535 222.294Z" fill="white"/>
<path d="M44.6777 228.274L34.5667 220.329C34.1826 220.027 33.934 219.584 33.8752 219.098C33.8165 218.612 33.9524 218.122 34.2533 217.737L34.6973 217.169C34.999 216.784 35.4407 216.534 35.9255 216.475C36.4103 216.416 36.8986 216.553 37.2833 216.854L47.3943 224.799C47.7783 225.102 48.027 225.545 48.0858 226.031C48.1445 226.517 48.0086 227.006 47.7077 227.392L47.2637 227.96C46.962 228.345 46.5203 228.594 46.0355 228.653C45.5507 228.712 45.0624 228.576 44.6777 228.274Z" fill="white"/>
<path d="M543.287 232.69C541.69 222.292 541.69 211.71 543.287 201.313C543.388 200.694 543.705 200.131 544.181 199.725C544.657 199.318 545.262 199.094 545.888 199.093H570.369C570.766 199.092 571.157 199.182 571.514 199.355C571.871 199.528 572.184 199.781 572.429 200.094C572.679 200.412 572.854 200.782 572.94 201.177C573.026 201.572 573.021 201.982 572.925 202.375C570.635 211.99 570.635 222.012 572.925 231.628C573.02 232.021 573.026 232.43 572.94 232.825C572.854 233.22 572.679 233.591 572.429 233.908C572.184 234.221 571.871 234.474 571.514 234.647C571.157 234.821 570.766 234.91 570.369 234.909H545.888C545.262 234.908 544.657 234.684 544.181 234.278C543.705 233.871 543.388 233.308 543.287 232.69Z" fill="#CCCCCC"/>
<path d="M563.282 215.042H550.436C549.947 215.042 549.479 214.847 549.134 214.501C548.789 214.155 548.594 213.685 548.594 213.196V212.474C548.594 211.985 548.789 211.515 549.134 211.169C549.479 210.823 549.947 210.628 550.436 210.628H563.282C563.771 210.628 564.239 210.823 564.584 211.169C564.93 211.515 565.124 211.985 565.124 212.474V213.196C565.124 213.685 564.93 214.155 564.584 214.501C564.239 214.847 563.771 215.042 563.282 215.042Z" fill="white"/>
<path d="M550.477 203.987C551.207 202.506 551.354 200.804 550.89 199.22C550.425 197.636 549.382 196.285 547.969 195.436C547.684 195.277 547.385 195.143 547.077 195.035L546.573 172.685L537.668 179.259L539.512 199.475C539.182 200.832 539.296 202.258 539.835 203.546C540.375 204.833 541.312 205.912 542.51 206.626C543.199 207.01 543.96 207.247 544.745 207.321C545.53 207.396 546.322 207.306 547.071 207.058C547.82 206.81 548.509 206.409 549.095 205.88C549.682 205.352 550.152 204.707 550.477 203.987Z" fill="#A0616A"/>
<path d="M546.725 194.063L540.343 194.449C539.662 194.466 538.999 194.225 538.487 193.775C537.975 193.325 537.65 192.698 537.578 192.019L532.278 152.042L523.713 127.657C522.99 125.625 523.07 123.393 523.935 121.418C524.337 120.467 524.929 119.608 525.674 118.894C526.419 118.18 527.302 117.626 528.268 117.267C532.168 115.846 536.439 118.096 537.788 122.283L546.498 150.241L549.184 191.071C549.238 191.811 549.008 192.544 548.54 193.119C548.247 193.481 547.862 193.757 547.426 193.918C547.201 194 546.965 194.049 546.725 194.063Z" fill="#3F3D56"/>
<path d="M509.513 316.937L501.986 316.936L498.405 287.829L509.514 287.829L509.513 316.937Z" fill="#A0616A"/>
<path d="M511.432 324.251L487.161 324.251V323.943C487.161 322.699 487.405 321.467 487.88 320.318C488.355 319.169 489.051 318.125 489.928 317.246C490.805 316.366 491.847 315.669 492.993 315.193C494.139 314.717 495.368 314.472 496.608 314.472H496.609L511.433 314.473L511.432 324.251Z" fill="#2F2E41"/>
<path d="M531.616 316.937L524.089 316.936L520.508 287.829L531.617 287.829L531.616 316.937Z" fill="#A0616A"/>
<path d="M533.536 324.251L509.265 324.251V323.943C509.265 322.699 509.509 321.467 509.984 320.318C510.458 319.169 511.154 318.125 512.032 317.246C512.909 316.366 513.95 315.669 515.096 315.193C516.243 314.717 517.471 314.472 518.712 314.472H518.712L533.536 314.473L533.536 324.251Z" fill="#2F2E41"/>
<path d="M536.668 199.304L534.87 306.218C534.865 306.556 534.789 306.89 534.649 307.198C534.509 307.506 534.307 307.782 534.055 308.008C533.804 308.234 533.509 308.406 533.188 308.513C532.868 308.62 532.529 308.659 532.192 308.628L523.384 307.825C522.806 307.773 522.266 307.517 521.858 307.103C521.451 306.689 521.203 306.144 521.158 305.564L516.001 238.874C515.989 238.717 515.917 238.571 515.801 238.466C515.685 238.36 515.533 238.303 515.377 238.306C515.22 238.309 515.07 238.372 514.959 238.482C514.847 238.592 514.781 238.741 514.775 238.898L512.198 307.115C512.174 307.751 511.905 308.354 511.447 308.795C510.989 309.237 510.379 309.484 509.744 309.484H500.297C499.672 309.484 499.07 309.245 498.614 308.815C498.159 308.385 497.884 307.798 497.846 307.172L491.233 198.688L530.528 188.84L536.668 199.304Z" fill="#2F2E41"/>
<path d="M508.166 98.913C516.494 98.913 523.246 92.1444 523.246 83.7949C523.246 75.4455 516.494 68.6769 508.166 68.6769C499.838 68.6769 493.086 75.4455 493.086 83.7949C493.086 92.1444 499.838 98.913 508.166 98.913Z" fill="#A0616A"/>
<path d="M489.888 202.484C489.626 202.231 489.418 201.929 489.274 201.594C489.13 201.26 489.054 200.9 489.05 200.536L488.033 127.631C487.971 123.923 489.084 120.29 491.211 117.255C493.339 114.22 496.37 111.939 499.871 110.74C501.284 104.314 508.804 103.509 513.187 103.606C514.281 103.629 515.353 103.917 516.313 104.445C517.273 104.972 518.091 105.724 518.699 106.636L521.841 111.361L528.767 115.431C531.973 117.307 534.501 120.154 535.987 123.564C537.474 126.973 537.842 130.767 537.038 134.4L535.972 139.262C532.217 156.472 532.574 174.328 537.014 191.373L539.16 199.574C539.271 200.001 539.28 200.449 539.184 200.88C539.088 201.311 538.891 201.713 538.608 202.052C538.326 202.391 537.967 202.657 537.561 202.829C537.155 203.001 536.714 203.072 536.275 203.038L533.783 202.846C533.136 202.797 532.527 202.521 532.063 202.066C531.599 201.612 531.31 201.008 531.246 200.361L530.834 196.226C530.826 196.15 530.79 196.08 530.734 196.029C530.678 195.977 530.604 195.949 530.528 195.949C530.452 195.949 530.379 195.977 530.322 196.029C530.266 196.08 530.23 196.15 530.223 196.226L529.823 200.229C529.756 200.905 529.443 201.533 528.944 201.993C528.445 202.453 527.794 202.712 527.117 202.723L491.855 203.267C491.84 203.267 491.826 203.268 491.811 203.268C491.092 203.269 490.402 202.988 489.888 202.484Z" fill="#3F3D56"/>
<path d="M509.346 92.5093C509.407 94.6464 510.887 95.8828 512.704 97.0022C514.521 98.1216 516.645 98.607 518.726 99.0752C519.006 99.224 519.319 99.2981 519.635 99.2903C519.951 99.2825 520.26 99.1931 520.532 99.0307C520.804 98.8684 521.03 98.6385 521.187 98.3633C521.344 98.0881 521.428 97.7769 521.431 97.4597L523.339 90.1821C524.015 87.8574 524.506 85.4829 524.809 83.0807C525.268 78.4586 524.176 73.4864 520.958 70.1445C517.74 66.8026 512.159 65.6155 508.303 68.1904C503.726 62.3306 482.808 75.277 487.968 79.3516C488.886 80.0765 490.289 79.1593 491.455 79.0704C492.62 78.9815 493.925 79.187 494.666 80.0935C495.633 81.2779 495.211 83.0422 495.61 84.5197C495.775 85.0396 496.041 85.5216 496.392 85.938C496.744 86.3543 497.174 86.6968 497.658 86.9456C498.143 87.1944 498.671 87.3447 499.214 87.3877C499.756 87.4307 500.302 87.3656 500.819 87.1963C501.782 86.7204 502.688 86.1363 503.52 85.4552C504.414 84.8584 505.543 84.4174 506.549 84.7938C507.876 85.29 508.347 86.9176 508.466 88.3316C508.669 89.7418 508.962 91.1374 509.346 92.5093Z" fill="#2F2E41"/>
<path opacity="0.2" d="M505.823 133.027L503.367 163.188L490.474 194.58L509.507 163.804L505.823 133.027Z" fill="black"/>
<path d="M487.459 206.271C488.163 205.704 488.734 204.99 489.133 204.178C489.532 203.366 489.748 202.476 489.767 201.572C489.785 200.667 489.606 199.769 489.241 198.942C488.876 198.114 488.334 197.377 487.654 196.781L495.868 176.385L484.693 178.648L478.606 197.67C477.684 198.881 477.238 200.389 477.351 201.908C477.465 203.428 478.13 204.852 479.222 205.912C480.313 206.973 481.754 207.595 483.273 207.661C484.791 207.727 486.28 207.232 487.459 206.271V206.271Z" fill="#A0616A"/>
<path d="M487.219 197.275L480.893 194.989C480.241 194.75 479.702 194.275 479.382 193.658C479.063 193.041 478.985 192.325 479.165 191.653L489.601 153.356L491.192 118.743C491.24 117.698 491.494 116.673 491.941 115.728C492.387 114.783 493.017 113.936 493.793 113.237C494.569 112.538 495.475 112 496.46 111.656C497.445 111.311 498.489 111.166 499.53 111.229C500.572 111.293 501.59 111.563 502.526 112.024C503.462 112.486 504.298 113.129 504.984 113.917C505.67 114.705 506.193 115.622 506.522 116.614C506.851 117.607 506.981 118.655 506.902 119.698L504.061 157.598L490.763 195.587C490.561 196.161 490.177 196.653 489.67 196.986C489.162 197.32 488.559 197.477 487.953 197.434C487.703 197.414 487.456 197.361 487.219 197.275Z" fill="#3F3D56"/>
<path d="M31.5327 308.196L38.292 311.517L54.2875 286.962L44.3121 282.06L31.5327 308.196Z" fill="#FFB8B8"/>
<path d="M30.8909 305.137L44.2016 311.678L44.2022 311.678C45.3161 312.225 46.3116 312.987 47.1318 313.921C47.952 314.854 48.5808 315.94 48.9823 317.116C49.3839 318.293 49.5503 319.538 49.472 320.779C49.3938 322.02 49.0724 323.234 48.5263 324.351L48.3912 324.627L26.5977 313.917L30.8909 305.137Z" fill="#2F2E41"/>
<path d="M98.5149 319.774L106.042 319.774L109.623 290.666L98.5137 290.667L98.5149 319.774Z" fill="#FFB8B8"/>
<path d="M96.5947 314.848L111.419 314.848H111.419C112.66 314.848 113.888 315.093 115.034 315.569C116.181 316.044 117.222 316.742 118.099 317.621C118.977 318.501 119.672 319.545 120.147 320.694C120.622 321.843 120.866 323.075 120.866 324.318V324.626L96.5952 324.627L96.5947 314.848Z" fill="#2F2E41"/>
<path d="M82.3461 118.893C90.6746 118.893 97.4262 112.125 97.4262 103.775C97.4262 95.4259 90.6746 88.6573 82.3461 88.6573C74.0177 88.6573 67.2661 95.4259 67.2661 103.775C67.2661 112.125 74.0177 118.893 82.3461 118.893Z" fill="#FFB8B8"/>
<path d="M97.3628 310.174C96.6514 310.173 95.9678 309.897 95.4542 309.403C94.9407 308.91 94.6367 308.237 94.6057 307.524L88.7767 229.745C88.77 229.541 88.6962 229.346 88.5668 229.188C88.4374 229.031 88.2597 228.921 88.0614 228.876C87.8632 228.83 87.6555 228.852 87.4708 228.937C87.286 229.022 87.1346 229.166 87.0402 229.347L49.7521 300.713C49.4136 301.353 48.8396 301.836 48.1518 302.058C47.4641 302.281 46.7169 302.226 46.0689 301.905L35.6743 296.695C35.0222 296.366 34.5258 295.793 34.2933 295.099C34.0607 294.406 34.1107 293.648 34.4323 292.992L56.6823 247.792L71.4196 213.935C77.1079 202.702 83.1483 196.913 89.8859 196.238C96.7982 195.546 104.18 200.311 112.457 210.806L112.524 210.891L112.523 211L111.295 306.012C111.297 306.702 111.041 307.368 110.577 307.878C110.113 308.388 109.476 308.705 108.79 308.766L97.6331 310.161C97.5425 310.169 97.4523 310.174 97.3628 310.174Z" fill="#2F2E41"/>
<path d="M66.4301 219.403C67.2507 218.895 67.9503 218.213 68.4797 217.405C69.009 216.597 69.3552 215.683 69.4939 214.726C69.6325 213.769 69.5603 212.794 69.2822 211.868C69.0041 210.943 68.527 210.089 67.8844 209.369L70.1583 149.136L59.1066 150.516L58.1747 209.114C57.0385 210.277 56.3671 211.817 56.2877 213.442C56.2084 215.068 56.7266 216.666 57.7442 217.935C58.7617 219.203 60.208 220.053 61.8089 220.323C63.4097 220.594 65.054 220.266 66.4301 219.403Z" fill="#FFB8B8"/>
<path d="M73.4209 159.785L58.5796 158.094C58.1573 158.046 57.7503 157.907 57.3864 157.687C57.0224 157.467 56.71 157.171 56.4705 156.819C56.231 156.467 56.0699 156.068 55.9983 155.648C55.9267 155.228 55.9463 154.797 56.0556 154.385L59.8872 139.959C60.1448 137.794 61.2482 135.82 62.9554 134.47C64.6626 133.12 66.8342 132.503 68.9941 132.756C71.154 133.008 73.1259 134.109 74.4773 135.817C75.8288 137.525 76.4496 139.7 76.2035 141.866L76.7106 156.738C76.725 157.164 76.6476 157.588 76.4839 157.981C76.3201 158.375 76.0737 158.728 75.7615 159.017C75.4493 159.306 75.0786 159.524 74.6747 159.657C74.2708 159.789 73.8432 159.833 73.4209 159.785L73.4209 159.785Z" fill="#2F2E41"/>
<path d="M137.353 121.868C137.277 122.2 137.228 122.538 137.206 122.878L110.831 138.132L104.42 134.432L97.5854 143.401L108.3 151.057C109.165 151.676 110.208 151.996 111.27 151.97C112.333 151.944 113.358 151.573 114.193 150.913L141.39 129.403C142.617 129.859 143.954 129.929 145.222 129.604C146.49 129.279 147.63 128.575 148.489 127.585C149.348 126.596 149.887 125.367 150.032 124.063C150.178 122.759 149.925 121.442 149.305 120.286C148.686 119.13 147.73 118.191 146.565 117.593C145.4 116.994 144.081 116.766 142.784 116.938C141.486 117.11 140.272 117.673 139.301 118.554C138.331 119.435 137.652 120.591 137.353 121.868V121.868Z" fill="#FFB8B8"/>
<path d="M109.949 138.854L101.424 149.93C101.182 150.245 100.874 150.504 100.523 150.69C100.172 150.875 99.7846 150.982 99.3881 151.004C98.9917 151.026 98.5952 150.961 98.2257 150.816C97.8562 150.67 97.5224 150.446 97.247 150.159L87.5968 140.113C85.9947 138.86 84.9537 137.022 84.7021 135C84.4506 132.979 85.009 130.94 86.255 129.331C87.501 127.722 89.3327 126.674 91.3484 126.417C93.364 126.16 95.3991 126.715 97.0071 127.96L109.111 134.745C109.457 134.939 109.758 135.206 109.992 135.528C110.226 135.849 110.389 136.217 110.468 136.607C110.548 136.997 110.543 137.4 110.453 137.787C110.363 138.175 110.191 138.539 109.949 138.854H109.949Z" fill="#2F2E41"/>
<path d="M116.903 215.516L100.538 135.602C99.7601 131.804 97.544 128.456 94.3553 126.261C91.1666 124.067 87.2535 123.197 83.4384 123.834L77.9806 124.746C76.0847 125.063 74.2695 125.751 72.6388 126.771C71.008 127.791 69.5937 129.123 68.4765 130.691C66.7013 133.183 65.5056 136.041 64.9772 139.057C64.4488 142.072 64.6012 145.168 65.4231 148.117L74.4562 180.528L67.7525 215.251C67.6776 215.636 67.6957 216.034 67.8053 216.41C67.9148 216.787 68.1127 217.132 68.3823 217.416C68.6519 217.701 68.9855 217.916 69.3552 218.045C69.7249 218.174 70.1199 218.212 70.5073 218.157C73.8635 217.675 79.3957 216.988 85.7496 216.614L89.1918 203.302L90.5919 216.402C98.3971 216.183 106.87 216.567 113.86 218.387C114.264 218.495 114.689 218.498 115.095 218.396C115.501 218.293 115.874 218.089 116.179 217.801C116.484 217.513 116.71 217.153 116.837 216.753C116.963 216.353 116.986 215.927 116.903 215.516Z" fill="#77B2D3"/>
<path d="M99.7128 91.0116C98.8128 85.7634 94.6102 81.4128 89.6039 79.6326C84.5976 77.8525 78.9525 78.4314 74.0499 80.4814C68.8171 82.6144 64.4854 86.5025 61.7945 91.4817C61.1567 91.1955 60.5435 90.8571 59.9613 90.4698C57.0581 88.5327 54.7023 85.7744 51.5613 84.2556C46.0235 81.578 39.3284 83.358 33.939 86.3239C28.5495 89.2897 23.772 93.3871 18.0789 95.7145C12.386 98.0419 5.12167 98.157 0.810899 93.7623C-0.24997 96.8435 -0.336722 100.178 0.562471 103.31C1.46166 106.443 3.30301 109.221 5.83527 111.266C8.36753 113.31 11.4674 114.522 14.7118 114.735C17.9563 114.948 21.1874 114.153 23.9642 112.457C30.2017 108.648 33.6473 100.661 40.6436 98.5585C44.5149 97.3951 48.6722 98.3322 52.5851 99.3471C54.8901 100.012 57.2422 100.499 59.621 100.806C59.6489 105.11 61.266 109.252 64.1602 112.431C68.9885 117.527 76.5661 118.885 83.576 118.802L83.7225 118.653C81.5763 115.432 79.8825 110.966 82.2455 107.902C84.5782 104.877 89.1788 105.323 92.7512 103.984C97.7269 102.12 100.613 96.2598 99.7128 91.0116Z" fill="#2F2E41"/>
<path d="M126.429 325H22.052C21.8891 325 21.733 324.935 21.6178 324.82C21.5027 324.704 21.438 324.548 21.438 324.384C21.438 324.221 21.5027 324.065 21.6178 323.949C21.733 323.834 21.8891 323.769 22.052 323.769H126.429C126.592 323.769 126.748 323.834 126.863 323.949C126.978 324.065 127.043 324.221 127.043 324.384C127.043 324.548 126.978 324.704 126.863 324.82C126.748 324.935 126.592 325 126.429 325Z" fill="#CCCCCC"/>
<path d="M558.058 325H453.681C453.519 325 453.362 324.935 453.247 324.82C453.132 324.704 453.067 324.548 453.067 324.384C453.067 324.221 453.132 324.065 453.247 323.949C453.362 323.834 453.519 323.769 453.681 323.769H558.058C558.221 323.769 558.377 323.834 558.493 323.949C558.608 324.065 558.672 324.221 558.672 324.384C558.672 324.548 558.608 324.704 558.493 324.82C558.377 324.935 558.221 325 558.058 325Z" fill="#CCCCCC"/>
</g>
<defs>
<clipPath id="clip0_10_16">
<rect width="573" height="325" fill="white"/>
</clipPath>
</defs>
</svg>
