<svg width="56" height="50" viewBox="0 0 56 50" fill="none" xmlns="http://www.w3.org/2000/svg">
<path d="M55.4688 0H0V50H55.4661V0H55.4688Z" fill="#FF0032"/>
<path d="M36.7188 3.90622V6.26019H42.5149V15.625H45.7663V6.26019H51.5625V3.90622H36.7188Z" fill="white"/>
<path d="M16.6162 3.90622L12.5068 11.6583L8.39736 3.90622H3.90625V15.625H7.04922V7.23869L11.0666 14.3223H13.9334L17.9508 7.23869V15.625H21.0938V3.90622H16.6026H16.6135H16.6162Z" fill="white"/>
<path d="M48.308 42.6264C48.2493 43.067 48.02 43.4801 47.6705 43.7956C47.307 44.096 46.8597 44.2988 46.3704 44.3864C45.6602 44.5091 44.9445 44.5692 44.2203 44.5642C43.4514 44.5742 42.6853 44.4791 41.9528 44.2638C41.3489 44.086 40.8372 43.738 40.4849 43.2648C40.1326 42.7916 39.9537 42.1107 39.9537 41.2469V40.0176C39.9537 39.1489 40.1326 38.4679 40.4849 37.9947C40.8372 37.5215 41.3489 37.1735 41.9528 36.9957C42.6881 36.7854 43.4514 36.6853 44.2203 36.6953C44.9417 36.6853 45.6658 36.7429 46.3704 36.8731C46.8541 36.9582 47.3015 37.1635 47.6705 37.4639C48.0228 37.7794 48.2493 38.1875 48.308 38.6331H51.5625C51.5038 37.7093 51.1151 36.8305 50.4469 36.127C49.7899 35.4785 48.9427 35.0154 48.006 34.785C46.7702 34.4896 45.4981 34.3569 44.2287 34.3769C42.6713 34.3769 41.3209 34.5797 40.2109 34.9778C39.1177 35.3584 38.2006 36.0619 37.6135 36.9732C37.0403 37.8595 36.7411 39.0387 36.7188 40.4883V40.7612C36.7355 42.2108 37.0403 43.39 37.6135 44.2763C38.1978 45.1876 39.1177 45.8961 40.2109 46.2717C41.3209 46.6698 42.6713 46.8726 44.2287 46.8726C45.5065 46.8951 46.7786 46.7599 48.006 46.4645C48.9483 46.2391 49.7955 45.7735 50.4469 45.1225C51.1096 44.419 51.5038 43.5402 51.5625 42.6164H48.3164L48.3108 42.6214L48.308 42.6264Z" fill="white"/>
</svg>
